<svg width="279.50000000000006" height="63.09557360292443" viewBox="0 0 370.4545454545455 83.62805738556418" class="looka-1j8o68f"><defs id="SvgjsDefs1785"></defs><g id="SvgjsG1786" featurekey="symbolFeature-0" transform="matrix(0.8828574460886582,0,0,0.8828574460886582,-4.3260015700302725,-2.3260015700302725)" fill="#15b7b9"><path xmlns="http://www.w3.org/2000/svg" d="M50.9,95h-1.8c-0.6,0-1-0.4-1-1v-4.1c-20.6-1-37.1-17.5-38-38H5.9c-0.6,0-1-0.4-1-1v-1.8c0-0.6,0.4-1,1-1h4.1  c1-20.6,17.5-37.1,38-38V5.9c0-0.6,0.4-1,1-1h1.8c0.6,0,1,0.4,1,1v4.1c20.6,1,37.1,17.5,38,38H94c0.6,0,1,0.4,1,1v1.8  c0,0.6-0.4,1-1,1h-4.1c-1,20.6-17.5,37.1-38,38l0,4.1C51.9,94.6,51.5,95,50.9,95z M50,13.8c-19.9,0-36.2,16.2-36.2,36.2  c0,11.1,5,21.1,13,27.8V63.9h8v18.9c1.5,0.7,3.1,1.3,4.8,1.8V73.5h8v12.6c0.8,0.1,1.6,0.1,2.4,0.1s1.6,0,2.4-0.1V58.7h8v25.9  c1.7-0.5,3.2-1.1,4.8-1.8v-29h8v23.9c7.9-6.7,13-16.6,13-27.8C86.2,30.1,70,13.8,50,13.8z M50.8,41.3h-1.6v8h-7.9v1.6h7.9v8h1.6v-8  h8v-1.6h-8V41.3z M65.2,49.2h15.5v1.6H65.2V49.2z M29.8,66.9v13.3c0.7,0.4,1.4,0.8,2,1.1V66.9H29.8z M49.2,34.8V19.3h1.6v15.5  L49.2,34.8L49.2,34.8z M34.8,50.8H19.3v-1.6h15.5L34.8,50.8L34.8,50.8z M50.8,65.2v15.5h-1.6V65.2H50.8z"></path></g><g id="SvgjsG1787" featurekey="nameFeature-0" transform="matrix(1.027094553895945,0,0,1.027094553895945,97.94581040245126,-9.531435226863142)" fill="#15b7b9"><path d="M27.6 30.92 q0 2.92 -1.76 5.2 q-1.72 2.16 -4.74 3.36 t-6.82 1.2 q-3.48 0 -6.76 -1.62 t-5.52 -4.5 l3.12 -2.92 q3.88 4.68 9.16 4.68 q2.32 0 4.24 -0.56 q2.12 -0.64 3.28 -1.8 q1.32 -1.28 1.32 -3.04 q0 -2.12 -1.32 -3.2 q-1.12 -0.92 -3.32 -1.2 q-1.28 -0.16 -4.2 -0.16 q-5.36 0 -8.18 -1.96 t-2.82 -5.76 q0 -2.4 1.42 -4.56 t3.9 -3.44 q2.56 -1.36 5.68 -1.36 q3.52 0 6.36 1.08 q3.04 1.16 5.64 3.64 l-2.72 3.2 q-2.44 -1.96 -4.44 -2.74 t-4.84 -0.78 q-1.64 0 -3.06 0.68 t-2.26 1.82 t-0.84 2.42 q0 3.44 6.36 3.44 q5.08 0 8.04 1.04 q2.8 1 4 3.04 q1.08 1.8 1.08 4.8 z M59.8 24.880000000000003 q0 -3.2 -1.64 -5.8 q-1.56 -2.52 -4.26 -3.96 t-5.86 -1.44 q-3.28 0 -5.98 1.48 t-4.22 4.04 q-1.56 2.68 -1.56 5.96 q0 3.12 1.68 5.76 q1.6 2.48 4.3 3.94 t5.84 1.46 t5.84 -1.52 t4.26 -4.08 q1.6 -2.68 1.6 -5.84 z M64.12 25.119999999999997 q0 4.32 -2.24 7.96 q-2.16 3.48 -5.86 5.54 t-7.98 2.06 q-4.44 0 -8.16 -2.16 q-3.64 -2.08 -5.72 -5.72 q-2.16 -3.72 -2.16 -8.16 q0 -4.28 2.28 -7.88 q2.16 -3.44 5.86 -5.46 t7.94 -2.02 q4.36 0 8.08 2.12 q3.64 2.08 5.76 5.64 q2.2 3.72 2.2 8.08 z M83.92000000000002 40.68 q-4.2 0 -7.22 -1.46 t-4.6 -4.22 t-1.58 -6.6 l0 -18.24 l4.32 0 l0 18.24 q0 3.84 2.36 5.88 t6.72 2.04 t6.72 -2.04 t2.36 -5.88 l0 -18.24 l4.32 0 l0 18.24 q0 3.84 -1.58 6.6 t-4.6 4.22 t-7.22 1.46 z M127.92000000000002 14.559999999999999 l-10.52 0 l0 25.44 l-4.24 0 l0 -25.44 l-10.64 0 l0 -4.4 l25.4 0 l0 4.4 z M137.84000000000003 26.8 l0 13.2 l-4.32 0 l0 -29.84 l4.32 0 l0 12.24 q1.6 -0.8 3.8 -0.8 q0.8 0 3.88 0.36 q4.32 0.52 5.84 0.52 q2.32 0 4.04 -0.76 l0 -11.56 l4.36 0 l0 29.84 l-4.36 0 l0 -13.88 q-1.72 0.76 -4.04 0.76 q-1.52 0 -5.84 -0.52 q-3.08 -0.36 -3.88 -0.36 q-2.2 0 -3.8 0.8 z M191.80000000000004 28.04 l-8.04 11.96 l-4.36 0 l0 -29.84 l4.36 0 l0 22.28 l15.16 -22.28 l5.24 0 l-9.8 14.04 l5.36 8.04 q1.28 1.92 2.52 2.72 q1 0.64 2.12 0.64 l1.24 -0.04 l0 4.44 l-0.8 0 q-2 0.04 -2.92 -0.16 q-1.48 -0.24 -2.72 -1.2 q-1.4 -1.12 -2.84 -3.36 z M216.76000000000002 28.04 l0 7.6 l18.4 0 l0 4.36 l-22.76 0 l0 -29.84 l21 0 l0 4.4 l-16.64 0 l0 9.04 q1.24 -0.72 2.76 -0.96 q1.12 -0.2 2.88 -0.2 l6.52 0 l0 4.44 l-6.52 0 q-1.64 0 -2.88 0.2 q-1.52 0.28 -2.76 0.96 z M252.04000000000002 23.28 q2.68 -2.8 4.84 -6.24 t3.44 -6.88 l5 0 q-2.04 4.76 -4.96 9.12 q-2.64 3.96 -6.16 7.8 l0 12.92 l-4.32 0 l0 -12.92 q-3.52 -3.84 -6.16 -7.8 q-2.92 -4.36 -4.96 -9.12 l5 0 q1.28 3.44 3.44 6.88 t4.84 6.24 z"></path></g><g id="SvgjsG1788" featurekey="nameFeature-1" transform="matrix(1.3177477992748798,0,0,1.3177477992748798,98.41870289221059,29.77130203130797)" fill="#15b7b9"><path d="M26.6 14.559999999999999 l-10.52 0 l0 25.44 l-4.24 0 l0 -25.44 l-10.64 0 l0 -4.4 l25.4 0 l0 4.4 z M36.56 14.52 l0 9.92 q1.24 -0.72 2.76 -0.96 q1.12 -0.2 2.88 -0.2 l5.68 0 q2.36 0 3.68 -1.08 q1.4 -1.16 1.4 -3.48 q0 -2.2 -1.48 -3.28 q-1.28 -0.92 -3.6 -0.92 l-11.32 0 z M49.32 35.28 l-3.64 -7.64 l-3.48 0 q-1.64 0 -2.88 0.2 q-1.52 0.28 -2.76 0.96 l0 11.2 l-4.36 0 l0 -29.84 l15.68 0 q2.76 0 4.88 1.04 t3.28 2.96 q1.24 2.04 1.24 4.8 q0 3.36 -1.8 5.52 t-5.08 3 l2.32 4.76 q1 1.48 1.56 2.08 q0.68 0.76 1.3 1.02 t1.62 0.26 l0.44 0 l0.96 -0.04 l0 4.44 q-2.32 0 -3.44 -0.16 q-1.88 -0.32 -3.2 -1.24 q-1.56 -1.12 -2.64 -3.32 z M75.12 13.32 l-1.64 -3.68 l4.8 0 l14.36 30.36 l-4.88 0 l-1.96 -4.36 l-9.08 0 q-2.56 0 -4.6 0.48 q-1.8 0.44 -3 1.16 q-1.08 0.64 -1.44 1.32 l-0.76 1.4 l-4.72 0 z M78.32000000000001 31.240000000000002 l5.52 0 l-6.52 -12.6 l-6.6 14.28 q0.88 -0.76 2.68 -1.2 q2.04 -0.48 4.92 -0.48 z M104.2 14.559999999999999 l0 21.08 l6.76 0 q2.8 0 5.04 -1.44 q2.12 -1.4 3.32 -3.76 t1.2 -5.16 q0 -2.92 -1.14 -5.36 t-3.26 -3.88 q-2.28 -1.48 -5.24 -1.48 l-6.68 0 z M97.56 14.559999999999999 l-1.92 -4.4 l15.2 0 q3.96 0 7.24 2.04 q3.16 1.96 5 5.36 t1.84 7.4 q0 3 -1.18 5.94 t-3.26 5.14 q-2 2.16 -4.28 3.08 q-2.2 0.88 -5.24 0.88 l-11.04 0 l0 -25.44 l-2.36 0 z M136 40 l-4.28 0 l0 -29.84 l4.28 0 l0 29.84 z M145.68 14.36 l-3.48 -4.2 l5.64 0 l19.16 22.8 l0 -22.8 l4.4 0 l0 29.84 l-4.32 0 l-17.12 -20.52 l0 20.52 l-4.28 0 l0 -25.64 z M205.76000000000002 14 l-2.8 3.28 q-1.64 -1.68 -3.92 -2.64 t-4.8 -0.96 q-3.28 0 -5.98 1.48 t-4.22 4.04 q-1.56 2.68 -1.56 5.96 q0 3.12 1.68 5.76 q1.6 2.48 4.3 3.94 t5.82 1.46 q2.2 0 4.22 -0.76 t3.62 -2.12 l0 -5.44 l-3.84 0 l-1.88 -4.32 l10.04 0 l0 11.6 q-2.28 2.56 -5.46 3.98 t-6.74 1.42 q-4.44 0 -8.16 -2.16 q-3.64 -2.08 -5.72 -5.72 q-2.16 -3.72 -2.16 -8.16 q0 -4.28 2.28 -7.88 q2.16 -3.44 5.86 -5.46 t7.94 -2.02 q3.32 0 6.32 1.28 q2.92 1.2 5.16 3.44 z"></path></g></svg>